 <svg version="1.0" xmlns="http://www.w3.org/2000/svg" width="700.000000pt" height="700.000000pt" viewBox="0 0 700.000000 700.000000" preserveAspectRatio="xMidYMid meet">
<metadata>
Created by yeshwanth raghavendra gollapalli for devcentral.
</metadata>
<g transform="translate(0.000000,700.000000) scale(0.100000,-0.100000)" fill="#000000" stroke="none">
<path d="M227 6856 c-51 -19 -63 -31 -82 -79 -14 -38 -15 -355 -13 -3297 3
-3128 4 -3256 21 -3282 10 -15 30 -35 45 -45 26 -17 152 -18 3302 -18 3150 0
3276 1 3302 18 15 10 35 30 45 45 17 26 18 152 18 3302 0 3150 -1 3276 -18
3302 -10 15 -30 35 -45 45 -26 17 -153 18 -3282 20 -2705 2 -3261 0 -3293 -11z
m2643 -3058 c5 -1491 5 -1497 26 -1524 34 -46 88 -67 181 -72 46 -3 83 -5 83
-6 0 -1 -5 -17 -11 -36 -6 -19 -19 -69 -30 -110 -11 -41 -29 -109 -40 -150
-11 -41 -25 -95 -32 -119 l-11 -44 -125 5 c-140 6 -232 31 -321 88 -48 31
-121 103 -151 149 l-15 24 -90 -72 c-178 -145 -306 -201 -507 -222 -335 -35
-660 80 -892 316 -153 155 -247 329 -325 600 -35 122 -47 496 -21 645 86 493
390 882 796 1019 114 38 194 51 324 51 204 0 353 -42 514 -146 37 -24 72 -44
77 -44 6 0 10 211 10 575 l0 575 278 -2 277 -3 5 -1497z m1950 528 c144 -21
286 -65 413 -126 64 -32 67 -35 62 -62 -9 -39 -155 -441 -163 -450 -4 -3 -38
8 -77 26 -115 54 -173 75 -238 87 -34 6 -72 15 -85 20 -43 17 -214 10 -303
-12 -249 -61 -399 -211 -485 -484 -28 -87 -29 -98 -29 -290 0 -179 2 -208 23
-277 68 -229 195 -400 357 -481 90 -44 161 -60 280 -59 180 0 310 34 492 129
93 49 98 50 106 26 3 -10 17 -47 30 -83 97 -260 136 -373 131 -382 -5 -8 -91
-50 -189 -93 -262 -115 -659 -146 -940 -73 -44 12 -121 40 -171 63 -353 163
-567 447 -666 880 -20 88 -23 127 -23 330 0 204 3 241 23 330 63 276 167 471
346 651 181 181 378 285 626 329 99 17 361 18 480 1z m1395 -1903 c62 -32 151
-116 178 -169 8 -16 23 -58 33 -93 15 -56 16 -73 6 -135 -24 -137 -94 -234
-212 -289 -57 -28 -74 -31 -160 -31 -82 0 -103 3 -153 26 -71 33 -164 125
-196 192 -83 180 -13 414 151 497 59 30 106 38 203 35 78 -2 98 -7 150 -33z"></path>
<path d="M1695 3831 c-192 -29 -382 -179 -464 -366 -67 -153 -85 -251 -85
-450 1 -211 24 -307 107 -459 91 -165 231 -278 398 -321 205 -54 436 13 612
177 l47 44 0 564 0 564 -55 53 c-71 69 -178 138 -261 168 -73 26 -214 39 -299
26z"></path>
</g>
</svg>